<mxfile host="app.diagrams.net" modified="2021-11-13T14:15:52.035Z" agent="5.0 (Windows NT 10.0; Win64; x64) AppleWebKit/537.36 (KHTML, like Gecko) Chrome/95.0.4638.69 Safari/537.36" etag="ctt_UYb6Qu4JYsvFxNQ-" version="15.7.3" type="github">
  <diagram id="VEnAXMlmkaD5QDrI19K5" name="Page-1">
    <mxGraphModel dx="1633" dy="490" grid="1" gridSize="10" guides="1" tooltips="1" connect="1" arrows="1" fold="1" page="1" pageScale="1" pageWidth="827" pageHeight="1169" math="0" shadow="0">
      <root>
        <mxCell id="0" />
        <mxCell id="1" parent="0" />
        <mxCell id="U0OgihPHp6RNpsAgaQc_-1" value="" style="rounded=0;whiteSpace=wrap;html=1;fillColor=none;" parent="1" vertex="1">
          <mxGeometry x="40" y="40" width="680" height="320" as="geometry" />
        </mxCell>
        <mxCell id="U0OgihPHp6RNpsAgaQc_-2" value="Excel" style="text;html=1;strokeColor=none;fillColor=none;align=center;verticalAlign=middle;whiteSpace=wrap;rounded=0;" parent="1" vertex="1">
          <mxGeometry x="40" y="10" width="60" height="30" as="geometry" />
        </mxCell>
        <mxCell id="U0OgihPHp6RNpsAgaQc_-3" value="" style="rounded=0;whiteSpace=wrap;html=1;fillColor=none;" parent="1" vertex="1">
          <mxGeometry x="40" y="40" width="680" height="40" as="geometry" />
        </mxCell>
        <mxCell id="U0OgihPHp6RNpsAgaQc_-4" value="Title" style="rounded=0;whiteSpace=wrap;html=1;fillColor=none;" parent="1" vertex="1">
          <mxGeometry x="50" y="50" width="120" height="20" as="geometry" />
        </mxCell>
        <mxCell id="U0OgihPHp6RNpsAgaQc_-5" value="-" style="rounded=0;whiteSpace=wrap;html=1;fillColor=none;" parent="1" vertex="1">
          <mxGeometry x="670" y="50" width="30" height="20" as="geometry" />
        </mxCell>
        <mxCell id="U0OgihPHp6RNpsAgaQc_-6" value="+" style="rounded=0;whiteSpace=wrap;html=1;fillColor=none;" parent="1" vertex="1">
          <mxGeometry x="630" y="50" width="30" height="20" as="geometry" />
        </mxCell>
        <mxCell id="U0OgihPHp6RNpsAgaQc_-7" value="" style="rounded=0;whiteSpace=wrap;html=1;fillColor=none;" parent="1" vertex="1">
          <mxGeometry x="40" y="80" width="680" height="40" as="geometry" />
        </mxCell>
        <mxCell id="U0OgihPHp6RNpsAgaQc_-8" value="T" style="rounded=0;whiteSpace=wrap;html=1;fillColor=none;" parent="1" vertex="1">
          <mxGeometry x="50" y="90" width="30" height="20" as="geometry" />
        </mxCell>
        <mxCell id="U0OgihPHp6RNpsAgaQc_-9" value="T" style="rounded=0;whiteSpace=wrap;html=1;fillColor=none;" parent="1" vertex="1">
          <mxGeometry x="210" y="90" width="30" height="20" as="geometry" />
        </mxCell>
        <mxCell id="U0OgihPHp6RNpsAgaQc_-10" value="T" style="rounded=0;whiteSpace=wrap;html=1;fillColor=none;" parent="1" vertex="1">
          <mxGeometry x="360" y="90" width="30" height="20" as="geometry" />
        </mxCell>
        <mxCell id="U0OgihPHp6RNpsAgaQc_-11" value="T" style="rounded=0;whiteSpace=wrap;html=1;fillColor=none;" parent="1" vertex="1">
          <mxGeometry x="510" y="90" width="30" height="20" as="geometry" />
        </mxCell>
        <mxCell id="U0OgihPHp6RNpsAgaQc_-14" value="" style="endArrow=classic;html=1;rounded=0;entryX=0;entryY=0.5;entryDx=0;entryDy=0;exitX=1;exitY=0.5;exitDx=0;exitDy=0;" parent="1" source="U0OgihPHp6RNpsAgaQc_-8" target="U0OgihPHp6RNpsAgaQc_-9" edge="1">
          <mxGeometry width="50" height="50" relative="1" as="geometry">
            <mxPoint x="390" y="280" as="sourcePoint" />
            <mxPoint x="440" y="230" as="targetPoint" />
            <Array as="points">
              <mxPoint x="130" y="100" />
            </Array>
          </mxGeometry>
        </mxCell>
        <mxCell id="U0OgihPHp6RNpsAgaQc_-15" value="" style="endArrow=classic;html=1;rounded=0;" parent="1" target="U0OgihPHp6RNpsAgaQc_-10" edge="1">
          <mxGeometry width="50" height="50" relative="1" as="geometry">
            <mxPoint x="240" y="100" as="sourcePoint" />
            <mxPoint x="220" y="110" as="targetPoint" />
            <Array as="points" />
          </mxGeometry>
        </mxCell>
        <mxCell id="U0OgihPHp6RNpsAgaQc_-16" value="" style="endArrow=classic;html=1;rounded=0;entryX=0;entryY=0.5;entryDx=0;entryDy=0;" parent="1" target="U0OgihPHp6RNpsAgaQc_-11" edge="1">
          <mxGeometry width="50" height="50" relative="1" as="geometry">
            <mxPoint x="390" y="100" as="sourcePoint" />
            <mxPoint x="370" y="109.44444444444446" as="targetPoint" />
            <Array as="points" />
          </mxGeometry>
        </mxCell>
        <mxCell id="U0OgihPHp6RNpsAgaQc_-18" value="" style="rounded=0;whiteSpace=wrap;html=1;fillColor=none;" parent="1" vertex="1">
          <mxGeometry x="40" y="120" width="680" height="40" as="geometry" />
        </mxCell>
        <mxCell id="U0OgihPHp6RNpsAgaQc_-19" value="fx" style="rounded=0;whiteSpace=wrap;html=1;fillColor=none;" parent="1" vertex="1">
          <mxGeometry x="40" y="120" width="40" height="40" as="geometry" />
        </mxCell>
        <mxCell id="U0OgihPHp6RNpsAgaQc_-20" value="Table" style="text;html=1;strokeColor=none;fillColor=none;align=center;verticalAlign=middle;whiteSpace=wrap;rounded=0;" parent="1" vertex="1">
          <mxGeometry x="345" y="230" width="60" height="30" as="geometry" />
        </mxCell>
        <mxCell id="U0OgihPHp6RNpsAgaQc_-21" value="" style="rounded=0;whiteSpace=wrap;html=1;fillColor=none;" parent="1" vertex="1">
          <mxGeometry x="40" y="440" width="690" height="300" as="geometry" />
        </mxCell>
        <mxCell id="U0OgihPHp6RNpsAgaQc_-22" value="&lt;b&gt;&lt;font style=&quot;font-size: 14px&quot;&gt;PAGE 2&lt;br&gt;&lt;/font&gt;&lt;/b&gt;" style="text;html=1;strokeColor=none;fillColor=none;align=center;verticalAlign=middle;whiteSpace=wrap;rounded=0;" parent="1" vertex="1">
          <mxGeometry x="330" y="390" width="60" height="30" as="geometry" />
        </mxCell>
        <mxCell id="U0OgihPHp6RNpsAgaQc_-23" value="Excel Dashboard Header" style="rounded=0;whiteSpace=wrap;html=1;fillColor=none;" parent="1" vertex="1">
          <mxGeometry x="40" y="440" width="690" height="40" as="geometry" />
        </mxCell>
        <mxCell id="U0OgihPHp6RNpsAgaQc_-24" value="Dashboard" style="text;html=1;strokeColor=none;fillColor=none;align=center;verticalAlign=middle;whiteSpace=wrap;rounded=0;" parent="1" vertex="1">
          <mxGeometry x="40" y="410" width="60" height="30" as="geometry" />
        </mxCell>
        <mxCell id="U0OgihPHp6RNpsAgaQc_-25" value="" style="rounded=0;whiteSpace=wrap;html=1;fillColor=none;" parent="1" vertex="1">
          <mxGeometry x="40" y="480" width="690" height="80" as="geometry" />
        </mxCell>
        <mxCell id="U0OgihPHp6RNpsAgaQc_-26" value="&lt;font style=&quot;font-size: 30px&quot;&gt;+&lt;/font&gt;" style="rounded=0;whiteSpace=wrap;html=1;fillColor=none;" parent="1" vertex="1">
          <mxGeometry x="120" y="490" width="80" height="60" as="geometry" />
        </mxCell>
        <mxCell id="U0OgihPHp6RNpsAgaQc_-27" value="" style="rounded=0;whiteSpace=wrap;html=1;fontSize=30;fillColor=none;" parent="1" vertex="1">
          <mxGeometry x="80" y="590" width="600" height="40" as="geometry" />
        </mxCell>
        <mxCell id="U0OgihPHp6RNpsAgaQc_-28" value="&lt;font style=&quot;font-size: 10px&quot;&gt;Table Name&lt;/font&gt;" style="text;html=1;strokeColor=none;fillColor=none;align=center;verticalAlign=middle;whiteSpace=wrap;rounded=0;fontSize=30;" parent="1" vertex="1">
          <mxGeometry x="90" y="590" width="60" height="30" as="geometry" />
        </mxCell>
        <mxCell id="U0OgihPHp6RNpsAgaQc_-29" value="Created Date" style="text;html=1;strokeColor=none;fillColor=none;align=center;verticalAlign=middle;whiteSpace=wrap;rounded=0;fontSize=10;" parent="1" vertex="1">
          <mxGeometry x="600" y="595" width="75" height="30" as="geometry" />
        </mxCell>
        <mxCell id="U0OgihPHp6RNpsAgaQc_-30" value="" style="rounded=0;whiteSpace=wrap;html=1;fontSize=30;fillColor=none;" parent="1" vertex="1">
          <mxGeometry x="80" y="650" width="600" height="40" as="geometry" />
        </mxCell>
        <mxCell id="U0OgihPHp6RNpsAgaQc_-31" value="&lt;font style=&quot;font-size: 10px&quot;&gt;Table Name&lt;/font&gt;" style="text;html=1;strokeColor=none;fillColor=none;align=center;verticalAlign=middle;whiteSpace=wrap;rounded=0;fontSize=30;" parent="1" vertex="1">
          <mxGeometry x="90" y="650" width="60" height="30" as="geometry" />
        </mxCell>
        <mxCell id="U0OgihPHp6RNpsAgaQc_-32" value="Created Date" style="text;html=1;strokeColor=none;fillColor=none;align=center;verticalAlign=middle;whiteSpace=wrap;rounded=0;fontSize=10;" parent="1" vertex="1">
          <mxGeometry x="605" y="655" width="75" height="30" as="geometry" />
        </mxCell>
        <mxCell id="OvjBY1V-5khMuDg3PPBf-1" value="Header&lt;br&gt;" style="text;html=1;align=center;verticalAlign=middle;resizable=0;points=[];autosize=1;strokeColor=none;fillColor=none;" vertex="1" parent="1">
          <mxGeometry x="-30" y="50" width="50" height="20" as="geometry" />
        </mxCell>
        <mxCell id="OvjBY1V-5khMuDg3PPBf-2" value="Toolbar&lt;br&gt;" style="text;html=1;align=center;verticalAlign=middle;resizable=0;points=[];autosize=1;strokeColor=none;fillColor=none;" vertex="1" parent="1">
          <mxGeometry x="-35" y="90" width="50" height="20" as="geometry" />
        </mxCell>
        <mxCell id="OvjBY1V-5khMuDg3PPBf-3" value="Formula&lt;br&gt;" style="text;html=1;align=center;verticalAlign=middle;resizable=0;points=[];autosize=1;strokeColor=none;fillColor=none;" vertex="1" parent="1">
          <mxGeometry x="-35" y="130" width="60" height="20" as="geometry" />
        </mxCell>
        <mxCell id="OvjBY1V-5khMuDg3PPBf-4" value="Table&lt;br&gt;" style="text;html=1;align=center;verticalAlign=middle;resizable=0;points=[];autosize=1;strokeColor=none;fillColor=none;" vertex="1" parent="1">
          <mxGeometry x="-25" y="230" width="40" height="20" as="geometry" />
        </mxCell>
      </root>
    </mxGraphModel>
  </diagram>
</mxfile>
